<?xml version="1.0" encoding="UTF-8" standalone="no"?>
<!-- Created with Inkscape (http://www.inkscape.org/) -->

<svg
   width="210mm"
   height="297mm"
   viewBox="0 0 210 297"
   version="1.1"
   id="svg5"
   sodipodi:docname="rocket_ignited.svg"
   inkscape:version="1.2.2 (b0a8486541, 2022-12-01)"
   xmlns:inkscape="http://www.inkscape.org/namespaces/inkscape"
   xmlns:sodipodi="http://sodipodi.sourceforge.net/DTD/sodipodi-0.dtd"
   xmlns="http://www.w3.org/2000/svg"
   xmlns:svg="http://www.w3.org/2000/svg">
  <sodipodi:namedview
     id="namedview7"
     pagecolor="#505050"
     bordercolor="#eeeeee"
     borderopacity="1"
     inkscape:showpageshadow="0"
     inkscape:pageopacity="0"
     inkscape:pagecheckerboard="0"
     inkscape:deskcolor="#505050"
     inkscape:document-units="mm"
     showgrid="false"
     inkscape:zoom="1.9407086"
     inkscape:cx="241.66431"
     inkscape:cy="554.6943"
     inkscape:window-width="3840"
     inkscape:window-height="2051"
     inkscape:window-x="1920"
     inkscape:window-y="0"
     inkscape:window-maximized="1"
     inkscape:current-layer="layer1" />
  <defs
     id="defs2">
    <rect
       x="396.77233"
       y="218.49222"
       width="117.82286"
       height="580.46771"
       id="rect9254" />
    <rect
       x="383.50005"
       y="168.70224"
       width="123.73658"
       height="628.88692"
       id="rect9248" />
    <rect
       x="387.30194"
       y="213.67673"
       width="116.82229"
       height="575.44504"
       id="rect1188" />
    <rect
       x="388.28474"
       y="204.94006"
       width="122.26266"
       height="583.4411"
       id="rect1182" />
    <rect
       x="395.33962"
       y="200.29981"
       width="110.42309"
       height="588.33009"
       id="rect1176" />
    <rect
       x="396.28471"
       y="206.65739"
       width="100.76309"
       height="584.90661"
       id="rect1170" />
    <rect
       x="386.38406"
       y="203.96812"
       width="112.77886"
       height="594.1215"
       id="rect604" />
    <rect
       x="405.96083"
       y="160.38689"
       width="86.276357"
       height="683.22927"
       id="rect598" />
    <rect
       x="419.02813"
       y="672.42695"
       width="128.19156"
       height="104.86714"
       id="rect592" />
    <rect
       x="384.86682"
       y="901.89854"
       width="15.328714"
       height="169.43672"
       id="rect586" />
    <rect
       x="385.43135"
       y="782.88436"
       width="120.34625"
       height="528.35305"
       id="rect580" />
    <rect
       x="372.12952"
       y="771.82505"
       width="133.40729"
       height="462.7505"
       id="rect568" />
  </defs>
  <g
     inkscape:label="Layer 1"
     inkscape:groupmode="layer"
     id="layer1">
    <path
       id="rect234"
       style="fill:#151e20;stroke:#000000;stroke-width:0.13755"
       d="m 91.836548,43.449643 a 23.378824,23.552924 88.390788 0 0 -22.887074,24.031124 23.378824,23.552924 88.390788 0 0 0.09916,1.506566 v 90.493097 h 9.83799 v 9.14992 H 105.8406 v -9.14992 h 10.05053 V 69.468197 a 23.378824,23.552924 88.390788 0 0 0.14571,-3.31025 23.378824,23.552924 88.390788 0 0 -24.200292,-22.708304 z" />
    <text
       xml:space="preserve"
       style="font-style:normal;font-variant:normal;font-weight:normal;font-stretch:normal;font-size:9.87778px;font-family:'Cousine Nerd Font Mono';-inkscape-font-specification:'Cousine Nerd Font Mono, Normal';font-variant-ligatures:normal;font-variant-caps:normal;font-variant-numeric:normal;font-variant-east-asian:normal;fill:#b21d1d;fill-opacity:1;stroke:#000000;stroke-width:0.2"
       x="89.052216"
       y="57.402042"
       id="text9310"><tspan
         sodipodi:role="line"
         id="tspan9308"
         style="font-style:normal;font-variant:normal;font-weight:normal;font-stretch:normal;font-size:9.87778px;font-family:'Cousine Nerd Font Mono';-inkscape-font-specification:'Cousine Nerd Font Mono, Normal';font-variant-ligatures:normal;font-variant-caps:normal;font-variant-numeric:normal;font-variant-east-asian:normal;stroke-width:0.2"
         x="89.052216"
         y="57.402042">A</tspan><tspan
         sodipodi:role="line"
         style="font-style:normal;font-variant:normal;font-weight:normal;font-stretch:normal;font-size:9.87778px;font-family:'Cousine Nerd Font Mono';-inkscape-font-specification:'Cousine Nerd Font Mono, Normal';font-variant-ligatures:normal;font-variant-caps:normal;font-variant-numeric:normal;font-variant-east-asian:normal;stroke-width:0.2"
         x="89.052216"
         y="69.74926"
         id="tspan9312">S</tspan><tspan
         sodipodi:role="line"
         style="font-style:normal;font-variant:normal;font-weight:normal;font-stretch:normal;font-size:9.87778px;font-family:'Cousine Nerd Font Mono';-inkscape-font-specification:'Cousine Nerd Font Mono, Normal';font-variant-ligatures:normal;font-variant-caps:normal;font-variant-numeric:normal;font-variant-east-asian:normal;stroke-width:0.2"
         x="89.052216"
         y="82.096489"
         id="tspan9314">T</tspan><tspan
         sodipodi:role="line"
         style="font-style:normal;font-variant:normal;font-weight:normal;font-stretch:normal;font-size:9.87778px;font-family:'Cousine Nerd Font Mono';-inkscape-font-specification:'Cousine Nerd Font Mono, Normal';font-variant-ligatures:normal;font-variant-caps:normal;font-variant-numeric:normal;font-variant-east-asian:normal;stroke-width:0.2"
         x="89.052216"
         y="94.44371"
         id="tspan9316">R</tspan><tspan
         sodipodi:role="line"
         style="font-style:normal;font-variant:normal;font-weight:normal;font-stretch:normal;font-size:9.87778px;font-family:'Cousine Nerd Font Mono';-inkscape-font-specification:'Cousine Nerd Font Mono, Normal';font-variant-ligatures:normal;font-variant-caps:normal;font-variant-numeric:normal;font-variant-east-asian:normal;stroke-width:0.2"
         x="89.052216"
         y="106.79094"
         id="tspan9318">O</tspan><tspan
         sodipodi:role="line"
         style="font-style:normal;font-variant:normal;font-weight:normal;font-stretch:normal;font-size:9.87778px;font-family:'Cousine Nerd Font Mono';-inkscape-font-specification:'Cousine Nerd Font Mono, Normal';font-variant-ligatures:normal;font-variant-caps:normal;font-variant-numeric:normal;font-variant-east-asian:normal;stroke-width:0.2"
         x="89.052216"
         y="119.13817"
         id="tspan9320">C</tspan><tspan
         sodipodi:role="line"
         style="font-style:normal;font-variant:normal;font-weight:normal;font-stretch:normal;font-size:9.87778px;font-family:'Cousine Nerd Font Mono';-inkscape-font-specification:'Cousine Nerd Font Mono, Normal';font-variant-ligatures:normal;font-variant-caps:normal;font-variant-numeric:normal;font-variant-east-asian:normal;stroke-width:0.2"
         x="89.052216"
         y="131.48538"
         id="tspan9322">A</tspan><tspan
         sodipodi:role="line"
         style="font-style:normal;font-variant:normal;font-weight:normal;font-stretch:normal;font-size:9.87778px;font-family:'Cousine Nerd Font Mono';-inkscape-font-specification:'Cousine Nerd Font Mono, Normal';font-variant-ligatures:normal;font-variant-caps:normal;font-variant-numeric:normal;font-variant-east-asian:normal;stroke-width:0.2"
         x="89.052216"
         y="143.83261"
         id="tspan9324">L</tspan><tspan
         sodipodi:role="line"
         style="font-style:normal;font-variant:normal;font-weight:normal;font-stretch:normal;font-size:9.87778px;font-family:'Cousine Nerd Font Mono';-inkscape-font-specification:'Cousine Nerd Font Mono, Normal';font-variant-ligatures:normal;font-variant-caps:normal;font-variant-numeric:normal;font-variant-east-asian:normal;stroke-width:0.2"
         x="89.052216"
         y="156.17984"
         id="tspan9326">C</tspan></text>
    <path
       id="path9502"
       style="fill:#f25500;stroke:#000000;stroke-width:0.103474"
       d="m 83.976859,163.75861 a 6.3254671,18.255705 3.7950251 0 0 -1.828313,0.62942 6.3254671,18.255705 23.778424 0 0 -0.647505,-0.43873 6.3254671,18.255705 23.778424 0 0 -13.149069,14.15572 6.3254671,18.255705 23.778424 0 0 -1.572513,19.25619 6.3254671,18.255705 23.778424 0 0 9.786482,-7.7897 6.3254671,18.255705 3.7950251 0 0 4.994528,10.61847 6.3254671,18.255705 3.7950251 0 0 3.970817,-3.28869 6.3254671,18.255705 3.7950251 0 0 3.296439,3.28869 6.3254671,18.255705 3.7950251 0 0 4.535124,-4.40335 6.3254671,18.255705 3.7950251 0 0 3.72535,4.40335 6.3254671,18.255705 3.7950251 0 0 7.098281,-13.79347 18.255705,6.3254671 74.297736 0 0 10.18491,13.15217 18.255705,6.3254671 74.297736 0 0 1.14876,-19.28668 18.255705,6.3254671 74.297736 0 0 -11.02981,-15.8626 18.255705,6.3254671 74.297736 0 0 -1.97456,2.04329 6.3254671,18.255705 3.7950251 0 0 -3.011191,-2.68408 6.3254671,18.255705 3.7950251 0 0 -4.53099,4.40025 6.3254671,18.255705 3.7950251 0 0 -3.72948,-4.40025 6.3254671,18.255705 3.7950251 0 0 -3.968754,3.29283 6.3254671,18.255705 3.7950251 0 0 -3.298506,-3.29283 z" />
    <path
       id="path9521"
       style="fill:#d80000;fill-opacity:1;stroke:#000000;stroke-width:0.0619183"
       d="m 102.60467,165.60834 a 10.628567,3.8903743 72.99606 0 0 -0.2527,0.0429 10.628567,3.8903743 72.99606 0 0 -1.29139,1.35082 10.628567,3.8903743 89.547399 0 0 -1.829861,-1.30793 10.628567,3.8903743 89.547399 0 0 -2.74505,3.03082 10.628567,3.8903743 89.547399 0 0 -2.51975,-2.5988 10.628567,3.8903743 89.547399 0 0 -3.13262,4.27674 10.628567,3.8903743 89.547399 0 0 -2.965713,-3.81269 10.628567,3.8903743 89.547399 0 0 -2.368847,2.13527 10.628567,3.8903743 89.547399 0 0 -2.473751,-2.49442 10.628567,3.8903743 89.547399 0 0 -2.722315,2.97191 3.8903743,10.628567 12.54353 0 0 -1.825728,-2.85667 3.8903743,10.628567 12.54353 0 0 -6.126758,9.3679 3.8903743,10.628567 12.54353 0 0 1.401465,11.3559 3.8903743,10.628567 12.54353 0 0 5.578988,-7.321 10.628567,3.8903743 89.547399 0 0 3.750158,7.73699 10.628567,3.8903743 89.547399 0 0 2.369365,-2.13579 10.628567,3.8903743 89.547399 0 0 2.47375,2.49494 10.628567,3.8903743 89.547399 0 0 3.133656,-4.27364 10.628567,3.8903743 89.547399 0 0 2.96416,3.80959 10.628567,3.8903743 89.547399 0 0 2.74454,-3.03082 10.628567,3.8903743 89.547399 0 0 2.52026,2.59932 10.628567,3.8903743 89.547399 0 0 3.617871,-6.72982 10.628567,3.8903743 72.99606 0 0 5.55676,5.78983 10.628567,3.8903743 72.99606 0 0 0.71004,-11.1709 10.628567,3.8903743 72.99606 0 0 -6.56653,-9.23044 z" />
  </g>
</svg>
